<svg width="136" height="38" viewBox="0 0 136 38" fill="none" xmlns="http://www.w3.org/2000/svg">
<path fill-rule="evenodd" clip-rule="evenodd" d="M44.2539 23.2209L47.4585 16.9314L50.3991 23.2209H44.2539ZM47.0851 10.8837L39.6665 25.4862V26.2996H54.877V25.4862L47.985 10.8837H47.0851Z" fill="#148FCE"/>
<path fill-rule="evenodd" clip-rule="evenodd" d="M99.2014 23.0927C96.5836 23.0927 94.4626 20.964 94.4626 18.3352C94.4626 15.707 96.5836 13.5777 99.2014 13.5777C101.82 13.5777 103.94 15.707 103.94 18.3352C103.94 20.964 101.82 23.0927 99.2014 23.0927ZM99.2014 10.45C94.8739 10.45 91.3466 13.9905 91.3466 18.3352C91.3466 22.6798 94.8739 26.221 99.2014 26.221C103.529 26.221 107.056 22.6798 107.056 18.3352C107.056 13.9905 103.529 10.45 99.2014 10.45Z" fill="#148FCE"/>
<path fill-rule="evenodd" clip-rule="evenodd" d="M125.324 22.9191L128.483 16.7064L131.383 22.9191H125.324ZM129.002 10.7326H128.115L120.801 25.1567V25.9601H135.796V25.1567L129.002 10.7326Z" fill="#148FCE"/>
<path fill-rule="evenodd" clip-rule="evenodd" d="M82.0074 16.5107L75.668 10.7325H74.6292V25.9601H77.6583V16.6413L82.0074 20.6164L86.3572 16.6413V25.9601H89.3863V10.7325H88.3258L82.0074 16.5107Z" fill="#148FCE"/>
<path fill-rule="evenodd" clip-rule="evenodd" d="M114.513 16.8147H111.829V13.752H114.513C115.357 13.752 116.028 14.4471 116.028 15.2938C116.028 16.1412 115.357 16.8147 114.513 16.8147ZM119.057 15.2938C119.057 12.7739 117.023 10.7103 114.513 10.7103H108.8V25.9384H111.829V19.8557H113.344L116.179 25.9601H119.403L116.396 19.4428C117.975 18.7261 119.057 17.1409 119.057 15.2938Z" fill="#148FCE"/>
<path fill-rule="evenodd" clip-rule="evenodd" d="M64.2927 16.7334L58.0697 10.8837H57.0499V26.2996H60.0234V16.8656L64.2927 20.8898L68.5627 16.8656V26.2996H71.5361V10.8837H70.4951L64.2927 16.7334Z" fill="#148FCE"/>
<path fill-rule="evenodd" clip-rule="evenodd" d="M25.8773 22.1736L18.6145 9.61312C17.7608 8.13297 15.6349 8.13257 14.7795 9.61369L7.51812 22.1718C6.65534 23.6678 7.73188 25.5281 9.43576 25.5281H23.9586C25.6625 25.5281 26.739 23.6678 25.8773 22.1736ZM21.3851 21.8026H12.0092L16.6972 13.6952L21.3851 21.8026Z" fill="#00DBFF"/>
<path fill-rule="evenodd" clip-rule="evenodd" d="M18.7604 0.819992C17.7208 0.223936 16.4452 0.225114 15.4076 0.823104L2.09189 8.49995C1.04891 9.10102 0.402717 10.2159 0.399827 11.4265L0.369387 26.7163C0.367941 27.9347 1.01645 29.057 2.06576 29.6605L15.3428 37.2799C16.3817 37.8764 17.6585 37.8749 18.6963 37.2754L32.0105 29.6C33.0553 28.9965 33.702 27.8803 33.702 26.6683L33.7325 11.383C33.7353 10.1654 33.0861 9.04187 32.0351 8.43828L18.7604 0.819992ZM4.09507 11.6368L17.0871 4.14657L30.0364 11.5781L30.0068 26.4635L17.0152 33.9529L4.06544 26.5212L4.09507 11.6368Z" fill="#148FCE"/>
</svg>
